# xmcd
#
# Track frame offsets:
#	150
#	14807
#	28459
#	46604
#	64022
#	78309
#	95274
#	114925
#	128195
#	140934
#	158953
#	173630
#	190160
#	209414
#	225202
#	239799
#	251731
#	262960
#	277790
#
# Disc length: 3937 seconds
#
# Revision: 4
# Processed by: cddbd v1.5.2PL0 Copyright (c) Steve Scherf et al.
# Submitted via: EasyCDDAExtractor 10.0.2.1
#
DISCID=080f5f13
DTITLE=Various Artist - PARADÃO SERTANEJO
DYEAR=2003
DGENRE=Sertanejo
TTITLE0=DELEY and DORIVAM - ACONTECEU COMIGO (BY DJ GILMAR SINISTRO)
TTITLE1=TEODORO and SAMPAIO - MULHER CHORONA (BY DJ GILMAR SINISTRO)
TTITLE2=BRUNO and MARRONE - VAI DAR NAMORO (BY DJ GILMAR SINISTRO)
TTITLE3=ZEZÉ DI CAMARGO and LUCIANO - PRA MUDAR MINHA VIDA (BY DJ GILMAR SINISTR
TTITLE3=O)
TTITLE4=ADALBERTO and ADRIANO - FOLHA SECA (BY DJ GILMAR SINISTRO)
TTITLE5=MATOGROSSO and MATHIAS - MISTÉRIO (BY DJ GILMAR SINISTRO)
TTITLE6=LEONARDO - EU SEI QUE TE PERDI (BY DJ GILMAR SINISTRO)
TTITLE7=CHEIRO DE FORRÓ - AMOR DE RAPARIGA (BY DJ GILMAR SINISTRO)
TTITLE8=TEODORO and SAMPAIO - É MENTIRA DELA (BY DJ GILMAR SINISTRO)
TTITLE9=CEZAR and PAULINHO - AQUELES OLHOS (BY DJ GILMAR SINISTRO)
TTITLE10=EDSON and HUDSON - TE QUERO PRA MIM (BY DJ GILMAR SINISTRO)
TTITLE11=ROB and ROGER - FRAGMENTO DE AMOR (BY DJ GILMAR SINISTRO)
TTITLE12=GOIANO and PARANAENSE - NUNCA MAIS VOU TE ESQUECER
TTITLE13=RONALDO VIOLA and PRAIANO - PAIXÃO DESENFREADA (BY DJ GILMAR SINISTRO)
TTITLE14=ZÉZE DE CAMARGO and LUCIANO - MEXE MEXE (BY DJ GILMAR SINISTRO)
TTITLE15=ADALBERTO and ADRIANO - COMENDO POEIRA (BY DJ GILMAR SINISTRO)
TTITLE16=LEONARDO - A AMOR SE VAI (BY DJ GILMAR SINISTRO)
TTITLE17=TEODORO and SAMPAIO - VAI CHOVER MULHER (BY DJ GILMAR SINISTRO)
TTITLE18=ROB and ROGER - SEPARADOS (BY DJ GILMAR SINISTRO)
EXTD=
EXTT0=
EXTT1=
EXTT2=
EXTT3=
EXTT4=
EXTT5=
EXTT6=
EXTT7=
EXTT8=
EXTT9=
EXTT10=
EXTT11=
EXTT12=
EXTT13=
EXTT14=
EXTT15=
EXTT16=
EXTT17=
EXTT18=
PLAYORDER=
